<?xml version="1.0" encoding="UTF-8" standalone="no"?>
<svg
  xmlns="http://www.w3.org/2000/svg"
  xmlns:xlink="http://www.w3.org/1999/xlink"
  version="1.1"
  width="255"
  height="383"
  viewBox="0 0 255 383"
>
  <defs>
    <polygon id="viking-a" points="0 .242 0 383 254.785 383 254.785 .242"/>
    <polygon id="viking-c" points=".852 .236 .852 1.236 .579 1.236 .579 .236 .852 .236"/>
  </defs>
  <g fill="none" fill-rule="evenodd" transform="translate(0 -1)">
    <g transform="translate(0 .759)">
      <mask id="viking-b" fill="#fff">
        <use xlink:href="#viking-a"/>
      </mask>
      <path fill="#070605" d="M197.2126,202.8377 C197.1686,202.9687 197.0636,203.1157 197.0916,203.2297 C197.2106,203.6987 197.4166,203.7137 197.6006,203.2657 C197.6446,203.1567 197.5916,202.9787 197.5236,202.8687 C197.4896,202.8147 197.3196,202.8457 197.2126,202.8377 L197.2126,202.8377 Z M127.9926,109.0907 C129.8316,108.6847 131.0976,107.6297 130.9246,105.7237 C130.7566,103.8657 129.4316,102.7087 127.5336,102.9317 C125.9436,103.1177 124.8016,104.2627 124.8476,105.9557 C124.8986,107.8617 126.1336,108.8547 127.9926,109.0907 L127.9926,109.0907 Z M131.0556,123.9017 C130.6496,122.3677 129.8376,121.0187 127.8486,121.0337 C126.1486,121.0457 124.9976,122.0997 124.8546,123.7177 C124.6896,125.5877 125.7876,126.9067 127.6816,127.0667 C129.6386,127.2327 130.5896,125.9167 131.0556,123.9017 L131.0556,123.9017 Z M130.9996,142.0277 C130.6306,140.1837 129.6296,138.9767 127.6756,139.0967 C126.0036,139.1987 124.8846,140.2887 124.8546,141.9517 C124.8206,143.8237 125.9126,145.1017 127.8566,145.1327 C129.8196,145.1647 130.7296,143.8587 130.9996,142.0277 L130.9996,142.0277 Z M182.9146,209.1017 C182.8806,209.4097 182.8456,209.7187 182.8106,210.0267 C185.2406,210.3737 187.7556,210.4377 190.0846,211.1257 C195.0126,212.5837 196.5856,210.3187 196.6046,205.6727 C191.9756,206.8317 187.4446,207.9667 182.9146,209.1017 L182.9146,209.1017 Z M133.7496,144.3037 C128.4276,148.8607 127.4796,148.8607 122.0246,144.3097 C121.1846,148.9927 125.5146,150.7097 127.3226,153.8007 C127.4346,153.9897 128.4476,153.9837 128.5566,153.7927 C130.3176,150.7007 134.7786,149.0497 133.7496,144.3037 L133.7496,144.3037 Z M122.0616,103.8827 C127.0436,99.3297 128.6426,99.3417 133.6166,103.6267 C134.6896,99.6277 134.1866,97.2227 129.0406,97.3167 C121.8546,97.4467 121.8496,97.1577 122.0616,103.8827 L122.0616,103.8827 Z M110.4646,212.1227 C110.2936,212.4737 110.1216,212.8227 109.9506,213.1737 C112.6436,215.5257 115.2486,217.9887 118.0516,220.2007 C120.9966,222.5237 121.9756,221.7397 122.2336,217.9117 C122.5546,213.1577 121.2756,211.1857 116.3396,212.0667 C114.4396,212.4067 112.4266,212.1227 110.4646,212.1227 L110.4646,212.1227 Z M146.3626,212.1257 C143.5136,212.1257 141.7206,212.1397 139.9276,212.1227 C133.2106,212.0617 133.3166,212.0527 133.6786,218.9187 C133.8216,221.6477 134.6216,222.2957 136.8776,220.7077 C140.0916,218.4447 143.1496,215.9987 146.3626,212.1257 L146.3626,212.1257 Z M178.6716,229.5567 C180.6786,226.1607 179.7126,222.9387 180.0646,219.9277 C180.7636,213.9317 180.1476,213.4327 174.0046,213.7607 C171.3846,213.9007 170.6986,214.5667 172.4606,216.9657 C175.1476,220.6227 177.3516,224.5897 178.6716,229.5567 L178.6716,229.5567 Z M133.6266,126.9607 C129.4036,130.3757 125.6246,130.6297 122.1886,126.1847 L122.1886,140.6427 C125.5066,135.2887 129.1176,136.2657 132.8526,138.9157 C133.1616,134.7607 132.2976,130.9967 133.6266,126.9607 L133.6266,126.9607 Z M171.0056,225.9417 C169.9966,224.3117 168.9516,223.0147 168.3286,221.5387 C166.9346,218.2327 165.1726,218.0927 162.3426,220.0657 C159.0906,222.3337 155.4706,224.0677 152.1276,226.2177 C151.2666,226.7717 149.1986,227.0597 150.2476,228.8997 C151.0386,230.2867 152.3216,230.0217 153.7316,229.4557 C159.1326,227.2857 164.8586,226.5077 171.0056,225.9417 L171.0056,225.9417 Z M133.7896,107.7127 C129.7056,112.6857 125.8936,112.2547 122.1806,108.1197 L122.1806,121.8837 C126.9256,117.4787 128.5076,117.4667 133.7896,121.6297 L133.7896,107.7127 Z M96.9476,230.8907 C98.7156,230.8907 99.3866,230.8127 100.0346,230.9037 C102.2706,231.2227 104.0786,230.5457 104.6476,228.2887 C105.2146,226.0417 102.9346,225.8077 101.6666,224.9957 C99.4486,223.5767 97.1196,222.3317 94.8436,221.0027 C88.9356,217.5537 88.3586,217.8237 85.1266,223.9297 C83.3606,227.2647 84.5086,228.8857 87.7656,229.5037 C91.1616,230.1497 94.6056,230.5447 96.9476,230.8907 L96.9476,230.8907 Z M193.7936,216.7457 C193.7846,231.5147 202.3556,241.7337 211.7696,251.5077 C212.4586,252.2227 213.1646,252.2947 213.9336,251.6717 C216.7066,249.4247 220.0226,249.0567 223.7676,248.9067 C209.5116,242.0097 197.6756,233.1827 193.7936,216.7457 L193.7936,216.7457 Z M175.6556,305.7297 C172.7396,309.6787 170.3586,313.4957 167.3896,316.7827 C163.1846,321.4417 160.7346,326.9647 158.1656,332.5357 C156.8116,335.4717 158.4076,337.3937 160.1476,338.4207 C162.3686,339.7337 162.3246,336.7837 162.9666,335.6417 C165.7856,330.6157 169.2836,326.3287 174.5406,323.6957 C176.6096,322.6587 178.7506,321.7337 180.7076,320.5137 C182.9776,319.0987 183.7606,317.3637 181.7696,314.8427 C179.6436,312.1497 177.9166,309.1417 175.6556,305.7297 L175.6556,305.7297 Z M57.0646,195.8197 C59.1056,194.9337 59.7686,193.1087 60.7926,191.6607 C65.4826,185.0347 65.5276,184.8997 73.5576,187.0817 C85.3856,190.2957 95.6666,196.1507 103.6496,205.6087 C105.0566,207.2747 106.4146,208.0927 108.6706,208.0727 C121.4916,207.9637 134.3156,207.9887 147.1376,208.0497 C149.2856,208.0607 150.7566,207.5307 152.1966,205.6987 C160.6166,194.9877 172.3936,189.7887 185.0986,186.2847 C188.6436,185.3077 191.5506,186.1937 193.6106,189.6097 C195.0006,191.9127 196.4836,194.2777 199.3116,196.3547 C199.8796,193.0517 200.3846,190.3387 200.8026,187.6117 C201.1296,185.4837 200.5226,184.3307 198.0056,184.0167 C183.0196,182.1477 168.0136,180.3637 152.9086,180.1127 C129.7856,179.7297 106.6446,179.3717 83.5566,181.1427 C74.9676,181.8007 66.4286,183.0977 57.8646,184.0797 C56.1996,184.2707 54.6216,184.8977 55.0226,186.7477 C55.6666,189.7167 55.2286,192.9827 57.0646,195.8197 L57.0646,195.8197 Z M144.8166,127.6347 C144.8166,132.1297 144.3306,136.6907 144.9196,141.1087 C146.1106,150.0557 142.9886,156.8667 137.0096,163.4677 C127.5136,173.9497 128.2236,173.9527 118.7426,163.5367 C112.7516,156.9547 110.0976,150.1857 110.6826,141.2007 C111.4596,129.2627 110.7296,117.2337 110.9486,105.2487 C111.0316,100.7157 109.5416,100.6167 106.0476,102.3117 C96.4196,106.9807 88.4846,113.6107 82.0456,122.1167 C70.9566,136.7627 65.2776,153.2967 64.7176,171.6147 C64.4946,178.9187 64.5756,178.9277 72.2486,177.9537 C85.5986,176.2587 99.0216,175.4817 112.4606,175.1737 C137.2396,174.6067 161.9826,175.3377 186.6316,178.1217 C190.3056,178.5367 192.3006,177.7937 191.8156,173.4627 C190.5746,162.3887 189.1206,151.3797 184.7286,141.0097 C177.6936,124.4037 167.0906,110.9697 150.5896,102.8207 C144.9696,100.0457 144.8316,100.1267 144.8206,106.1547 C144.8076,113.3147 144.8176,120.4747 144.8166,127.6347 L144.8166,127.6347 Z M122.9546,301.0537 C121.9346,303.1737 120.0636,302.2657 118.5596,302.1367 C112.4056,301.6087 106.3486,300.4357 100.5416,298.3367 C98.3046,297.5277 97.0806,296.9497 96.5736,300.1207 C96.0206,303.5887 94.3266,306.7927 92.0436,309.4567 C90.3476,311.4367 90.6116,312.7807 92.2046,314.5397 C96.1546,318.8987 99.1936,323.8117 101.0016,329.4687 C101.7796,331.9047 103.4536,333.8837 105.4706,335.3687 C113.9776,341.6327 123.2486,347.0607 127.9176,358.3087 C132.5716,348.6587 139.4416,342.9707 147.0626,338.0127 C150.5956,335.7137 153.8446,333.1027 155.2356,328.9037 C157.0476,323.4337 160.3106,318.8937 163.8316,314.4127 C167.6296,309.5807 170.8546,304.2987 174.6506,299.4647 C176.5256,297.0747 174.9426,296.1267 173.7526,294.5347 C172.2216,292.4857 171.5396,293.6507 169.9686,294.6197 C167.0306,296.4307 163.6846,297.6187 160.4326,298.8707 C154.1666,301.2837 147.4836,301.8397 140.9426,303.0187 C140.7106,299.9777 139.1556,298.9597 136.0926,299.2327 C132.6396,299.5397 129.1366,299.2637 125.6566,299.3167 C124.4666,299.3347 122.7706,298.7997 122.9546,301.0537 L122.9546,301.0537 Z M116.8046,284.8527 C116.8196,284.3147 116.8346,283.7767 116.8496,283.2387 C130.6496,281.1417 144.4536,279.0747 158.2426,276.9037 C159.8586,276.6497 162.4376,277.1507 162.6776,274.9337 C162.9176,272.7227 162.3286,270.1807 160.5766,268.4957 C159.0146,266.9927 156.8546,267.3237 154.8686,267.6517 C145.0426,269.2727 135.2286,270.9627 125.3956,272.5387 C118.5216,273.6417 111.5996,274.4617 104.7446,275.6697 C100.1736,276.4757 97.0936,280.7437 97.4706,284.9067 C97.9216,289.8887 101.6856,289.6127 105.1396,289.8867 C116.9096,290.8177 128.6816,291.7287 140.4496,292.6877 C147.9616,293.3007 154.8856,291.2157 161.7296,288.4267 C164.3946,287.3407 163.8536,285.3507 163.6766,283.4677 C163.4456,281.0027 161.4096,282.4107 160.1826,282.0307 C156.8566,281.0027 154.0846,286.3287 150.5706,282.8377 C150.4996,282.7667 150.1466,282.8167 150.1046,282.9007 C148.2116,286.6757 143.5966,280.3797 141.9766,285.0987 C140.0106,283.2127 138.0816,282.0757 136.3696,285.3737 C134.2696,283.4787 131.7376,283.8377 129.2406,284.0097 C125.0956,284.2937 120.9496,284.5707 116.8046,284.8527 L116.8046,284.8527 Z M63.8646,53.0497 C60.3206,63.9627 54.0256,73.3607 46.3316,81.5527 C41.5286,86.6657 37.2886,91.9787 33.7106,97.9217 C16.6006,120.3167 28.2176,146.9387 49.5646,159.2187 C49.8276,156.9677 50.0716,154.8797 50.3166,152.7927 L51.9466,145.0977 C53.2616,141.7167 54.4876,138.2967 55.9316,134.9717 C56.5796,133.4767 56.2006,132.7837 55.0496,131.7097 C48.0506,125.1747 46.2346,116.9377 47.4876,107.7367 C48.8756,97.5527 54.0606,89.1527 59.8806,81.0437 C64.1926,75.0367 67.3066,68.5687 67.8066,61.0577 C67.8516,60.3987 67.8956,59.7387 67.9406,59.0797 C68.3676,57.0607 68.3576,55.0417 67.9316,53.0227 C67.8716,52.0287 67.8116,51.0347 67.7506,50.0417 C67.8806,47.6937 67.3286,45.5137 66.3546,42.2507 C65.3366,46.6677 64.6006,49.8587 63.8646,53.0497 L63.8646,53.0497 Z M221.9786,97.9237 C218.4826,92.3257 214.8806,86.9227 210.0686,82.1907 C207.2476,79.4147 204.4026,76.2887 202.0726,73.0367 C197.0786,66.0677 193.2536,58.3757 190.8706,50.0557 C190.4796,47.8097 190.0866,45.5627 189.5136,42.2767 C188.2396,45.5387 187.8426,47.7427 187.9416,50.0407 C187.8766,51.0357 187.8116,52.0297 187.7456,53.0247 C186.5666,63.0767 189.4686,72.0557 195.1996,80.1637 C199.3206,85.9927 203.4236,91.8357 205.8246,98.5947 C210.1296,110.7107 210.6236,122.3367 200.2326,132.0177 C198.3666,133.7547 199.7886,134.8427 200.6226,136.1487 C202.2056,141.6927 203.7886,147.2387 205.3726,152.7837 C205.7496,154.9457 205.3446,157.3077 206.8016,159.4827 C215.2476,153.8257 221.8946,146.9297 226.1736,138.0977 C233.0306,123.9437 231.1886,110.5007 221.9786,97.9237 L221.9786,97.9237 Z M56.8936,325.0407 C57.0366,327.9617 58.1496,330.4857 60.1616,334.1657 C60.9016,325.3247 64.4556,319.3127 69.3816,313.9327 C72.0866,310.9797 74.2996,307.6267 75.6946,303.8537 C76.2406,302.3767 77.2426,300.7517 76.1916,299.0827 C70.3706,289.8367 65.6886,280.0217 61.9806,269.6457 C56.2146,274.4547 51.1196,279.2297 54.3726,287.1487 C57.7046,295.2637 58.4516,303.5127 56.8576,312.0567 C55.4326,316.3887 55.5746,320.7167 56.8936,325.0407 L56.8936,325.0407 Z M66.8966,223.0517 C66.8556,223.7067 66.8146,224.3617 66.7746,225.0177 C66.1836,232.8117 62.5126,240.0547 62.6406,247.9757 C62.9396,266.4857 71.0956,282.1397 80.3326,297.7697 C81.2006,296.3087 80.6856,295.4197 80.4206,294.4657 C78.1876,286.4167 75.7546,278.2437 78.2826,269.9457 C79.4026,266.2707 78.3596,264.3687 75.7396,262.4537 C68.9546,257.4947 65.7576,244.3077 69.3166,236.4257 C72.1516,230.1477 71.9136,223.8397 71.0826,217.3527 C70.9316,216.1687 70.8896,214.9907 69.1756,215.0587 C67.5056,215.1237 66.8096,215.8697 66.8936,217.5597 C66.9846,219.3857 66.9026,221.2207 66.8966,223.0517 L66.8966,223.0517 Z M147.8026,217.9237 C145.2496,220.0087 142.7606,222.1797 140.1176,224.1447 C138.7846,225.1357 138.3386,225.9337 139.4636,227.3507 C140.4986,228.6547 141.5116,228.8197 142.7886,227.7487 C143.5506,227.1097 144.3686,226.5367 145.1816,225.9607 C158.4926,216.5187 172.1326,207.6867 188.1376,203.3867 C195.3666,201.4437 195.9366,199.6357 190.9276,193.9037 C189.9286,191.8167 189.2746,189.7437 185.9466,190.4937 C169.3086,194.2487 157.1116,204.0467 147.8026,217.9237 L147.8026,217.9237 Z M190.6096,234.0917 C190.3346,232.2577 190.7336,230.2037 188.9136,228.8727 C188.9166,228.5777 188.8576,228.2967 188.7336,228.0287 C188.9046,224.4137 189.0936,220.7997 189.2366,217.1847 C189.2936,215.7467 188.4716,215.1937 187.0936,215.0817 C185.7036,214.9677 184.8876,215.3357 184.7656,216.8517 C184.2376,223.3897 182.7566,230.0217 186.7706,236.0837 C188.3966,243.3087 186.7826,249.5867 181.2006,254.6137 C179.8436,255.8357 179.7886,256.8447 180.5646,258.4697 C183.3646,264.3447 183.5076,270.6317 183.1146,276.9887 C183.0046,278.7707 182.2996,280.7557 183.9156,282.5297 C191.7006,267.1967 196.9896,248.2227 190.6096,234.0917 L190.6096,234.0917 Z M202.2446,247.9057 C200.8756,246.0797 200.1236,243.5887 196.6496,242.9197 C198.4266,245.8317 197.3886,248.5007 197.8966,251.0517 L197.7346,253.0257 L197.1816,257.1537 C194.5286,262.7037 196.6086,266.8387 200.8436,270.6387 C205.9936,275.2587 211.6126,278.8877 218.3906,280.5507 C218.7936,280.6227 219.1976,280.6947 219.6016,280.7677 L219.1586,279.7417 C217.5776,276.4597 215.6586,273.2787 215.1106,269.6227 C213.7616,260.6137 209.1946,253.5677 202.2446,247.9057 L202.2446,247.9057 Z M67.9496,136.1907 C68.9546,135.1547 70.7236,133.5997 69.5356,132.6417 C68.0176,131.4177 65.5976,131.0817 63.5136,130.8537 C61.3226,130.6137 61.8786,132.8587 61.2966,134.0617 C55.7106,143.8367 54.1386,154.6327 53.3626,165.6087 C53.1846,168.1297 54.7726,169.6797 57.1546,170.0757 C59.3186,170.4357 60.1266,168.7517 60.2836,167.0327 C61.2596,156.3527 64.7156,146.3017 67.9496,136.1907 L67.9496,136.1907 Z M187.7656,136.1497 C191.7736,147.4257 195.2816,158.8227 195.9106,171.6127 C198.9636,169.9217 202.5206,169.5197 202.2946,165.6637 C201.6506,154.6637 199.9796,143.8587 194.4246,134.0547 C193.9166,132.8007 194.3066,130.6457 192.2026,130.8517 C190.1296,131.0547 187.7456,131.4117 186.2066,132.6097 C185.1206,133.4567 186.8616,135.0717 187.7656,136.1497 L187.7656,136.1497 Z M191.4566,320.1637 C191.8946,320.8637 192.3306,321.5637 192.7686,322.2637 C192.7126,322.5467 192.7626,322.8097 192.9166,323.0537 C194.2346,326.3347 195.3026,329.6917 195.5116,334.4227 C201.1786,324.1047 200.1406,314.6117 197.8876,305.0367 C197.9046,303.0557 197.9226,301.0727 197.9406,299.0907 C198.4786,296.7457 199.0176,294.4007 199.5556,292.0567 C204.2686,281.1867 203.3026,277.3727 194.0436,270.2567 C191.7436,275.5377 189.6016,280.9007 187.0656,286.0707 C186.0076,288.2277 186.0696,289.8627 186.9536,292.0207 C189.0546,297.1507 192.9456,301.4507 193.8956,307.0957 C188.3466,306.6887 184.3066,302.8097 179.0846,300.1927 C180.8846,308.8547 186.8496,314.0887 191.4566,320.1637 L191.4566,320.1637 Z M76.8076,321.0917 C77.0906,316.5117 80.0096,312.3927 79.5456,306.4957 C78.2716,308.5807 77.6216,309.7037 76.9116,310.7877 C76.1846,311.8977 75.4136,312.9787 74.6376,314.0547 C71.6686,318.1787 71.8796,318.8417 76.8826,321.0177 C83.5296,324.8357 89.9706,328.8397 93.1196,336.3997 C93.5096,337.3377 93.8116,339.7907 95.4676,338.5467 C96.9006,337.4707 99.6996,336.1857 98.2746,333.4567 C95.7506,328.6207 94.1666,323.3617 90.5366,318.9937 C87.9006,315.8217 86.1796,315.3147 83.0516,318.0967 C81.3946,319.5707 78.9156,320.1227 76.8076,321.0917 L76.8076,321.0917 Z M182.1556,237.8277 L181.8936,237.8777 L182.1586,237.8137 C181.5736,232.7367 179.2926,232.5667 174.1566,232.5207 C166.2956,232.4497 159.1326,233.5967 152.0786,236.5007 C150.2406,237.2577 149.3276,236.6027 148.2966,235.4107 C146.2976,233.0997 144.1846,231.5207 141.2266,234.0937 C140.4556,234.7647 139.7046,233.9317 138.9716,233.6587 C138.6446,233.3587 138.3176,233.0597 137.9916,232.7607 C137.6646,231.5587 136.7686,230.8257 135.8256,230.1307 C132.0076,225.2847 127.1676,220.8857 128.8596,213.6787 C129.0476,212.8777 128.6636,211.9517 127.5376,212.1467 C126.5096,212.3237 126.3236,213.3167 126.5076,214.0707 C128.1996,221.0527 123.6976,225.4647 119.9246,230.1887 C118.8776,231.3747 117.8306,232.5607 116.7836,233.7457 C113.6496,235.4697 112.7266,231.5937 109.8886,231.2187 C108.5206,236.2247 104.7206,237.5857 99.7806,236.8637 C98.2006,236.6327 97.3436,237.5817 96.8666,238.9707 C93.5376,241.3437 90.2096,243.7177 86.8806,246.0907 C86.7506,245.9497 86.6226,245.8077 86.4946,245.6647 C87.1386,243.4557 88.4666,241.6607 89.8976,239.9087 C92.4456,236.7887 89.9266,237.0327 87.9066,236.9687 C87.3396,235.2597 85.8086,234.7837 84.3686,234.7337 C79.7816,234.5697 78.7476,231.3297 78.1586,227.7807 C77.4186,223.3167 80.5296,220.3307 82.5756,216.9417 C83.0886,216.0917 84.9216,214.9717 83.3876,214.2027 C81.1466,213.0817 78.4526,213.8247 76.0956,214.3807 C74.3156,214.8017 75.5566,216.6207 75.5116,217.8287 C75.2466,225.0117 78.2256,232.5297 73.2926,239.2277 C71.5706,247.2807 73.5116,254.2747 79.3816,260.1067 C80.5096,261.2277 81.3426,262.5587 83.2676,260.5837 C87.9826,255.7467 93.9966,254.3937 100.5876,255.1047 C101.7926,255.2337 103.0936,255.9177 104.0476,254.2397 C107.0906,248.8887 112.1286,248.5817 117.4676,249.1947 C115.1406,251.7227 110.4716,250.0287 108.8616,253.9217 C121.7006,258.9287 138.4956,256.4447 145.6066,248.5257 C143.9326,246.7977 141.4866,246.5567 138.7256,245.4837 C141.8396,244.6957 144.2366,244.5087 146.2786,245.8607 C148.6736,247.4457 150.6076,247.4177 153.3906,246.3167 C160.3226,243.5747 167.0546,244.5987 173.3366,248.8707 C174.8706,249.9147 175.5126,253.4007 178.2936,251.5497 C180.0416,250.3877 181.2346,248.4397 182.1056,246.3937 C183.1236,244.0017 183.4156,241.6037 182.6946,239.0967 L182.1556,237.8277 Z M141.7126,297.0207 C143.0946,298.9437 144.8236,299.4587 147.2306,299.0567 C153.4756,298.0117 159.5386,296.4047 165.3066,293.8157 C170.5946,291.4407 170.7966,290.1707 166.9156,285.2897 C166.9606,287.5857 166.8876,289.4427 164.2716,290.5527 C157.0396,293.6207 149.7526,296.1597 141.7426,295.6997 C139.2036,294.6187 136.5586,295.0037 133.9326,295.1297 C121.9846,294.1937 110.0366,293.2587 98.0896,292.3227 C98.0046,292.7487 97.9196,293.1737 97.8346,293.5987 C104.2086,297.5327 111.5676,298.1907 118.8496,299.0647 C119.2056,299.1067 119.8496,298.6457 119.9916,298.2757 C120.9576,295.7647 123.0796,296.3387 124.9706,296.3297 C127.9656,296.3147 130.9596,296.3437 133.9516,296.3537 C136.4556,297.5397 139.1406,296.6307 141.7126,297.0207 L141.7126,297.0207 Z M138.2546,100.1937 C138.2336,116.4387 138.2146,132.6837 138.1926,148.9287 C135.8486,151.6777 133.3416,154.3067 131.2036,157.2077 C128.9436,160.2737 127.2026,160.8647 124.7506,157.3277 C122.9036,154.6637 120.4366,152.4297 118.2456,150.0047 C117.3046,148.2907 117.6576,146.4207 117.6536,144.6117 C117.6206,129.7897 117.6216,114.9677 117.6126,100.1457 C117.9176,99.4847 117.7916,98.8097 117.1226,98.6387 C116.2866,98.4257 115.6206,98.8307 115.5516,99.8287 C115.5866,116.6177 115.6206,133.4067 115.6536,150.1957 L115.4656,150.4997 L115.6376,150.8127 C115.7596,151.5247 115.8816,152.2357 116.0036,152.9467 C119.4356,157.1567 122.9276,161.3197 126.2706,165.5987 C127.7286,167.4647 128.5206,166.6687 129.6406,165.3047 C132.7846,161.4777 136.0116,157.7167 139.2476,153.9667 C140.5536,152.4537 141.1216,150.8887 140.0986,149.0117 C140.1196,132.6067 140.1426,116.2007 140.1636,99.7957 C140.0706,98.8427 139.5106,98.3527 138.6256,98.6687 C137.9816,98.8987 137.8886,99.5617 138.2546,100.1937 L138.2546,100.1937 Z M55.2936,237.5797 L55.3826,237.3437 C59.5706,231.1117 63.2316,224.7077 62.1096,216.6817 C59.6616,223.1817 56.5716,229.2967 52.6186,234.9617 C52.0206,235.6407 51.4236,236.3197 50.8256,236.9997 C50.0836,237.6897 49.3416,238.3787 48.5996,239.0667 C43.0826,242.2607 37.5656,245.4527 32.0476,248.6457 C35.5876,248.9677 38.7576,249.3737 41.4606,251.4137 C42.6366,252.3007 43.4046,252.1507 44.3836,251.0977 C48.2026,246.9927 52.4236,243.2247 54.9366,238.0647 C55.1696,237.9857 55.2886,237.8247 55.2936,237.5797 L55.2936,237.5797 Z M89.5046,305.3737 C93.2486,300.1017 94.1926,294.2757 92.9326,288.0147 L92.6476,282.0497 C92.6526,279.7187 92.6596,277.3877 92.6656,275.0567 C93.1906,271.9917 94.5876,269.6167 97.7416,268.6317 C98.7846,268.4677 99.8276,268.3047 100.8696,268.1417 C102.8566,268.1337 104.8416,268.1257 106.8286,268.1177 C110.1756,268.6497 113.5246,268.5577 116.8736,268.1407 C122.2446,268.5147 127.4496,267.2787 132.7196,266.5887 C140.5656,265.5607 147.6066,261.9517 155.1156,259.8947 C161.2386,258.2167 164.4766,259.9957 167.0536,265.7817 C168.6216,269.3037 169.4306,273.0737 169.8386,276.8627 C170.8926,286.6447 176.9636,292.8117 184.3036,298.3467 C185.1996,297.0917 184.4996,296.4227 184.1426,295.7397 C180.3706,288.5407 177.9216,281.0867 179.0806,272.7657 C179.3516,270.8277 179.0326,268.7687 178.7436,266.7997 C176.3076,250.2297 161.6506,244.0157 148.1896,253.8827 C143.1206,257.5987 137.5356,259.9467 131.3956,261.1067 C122.2676,262.8297 113.2566,262.5647 104.2296,260.1947 C89.8836,256.4317 81.1616,263.6097 81.6356,278.5027 C81.8176,284.2277 83.3876,289.6487 85.0606,295.0557 C85.5456,300.6007 84.9646,306.1037 83.4126,312.9007 C86.3746,309.8937 88.2826,308.1327 89.3546,305.6767 L89.5046,305.3737 Z M56.9126,243.0667 C56.5526,243.7197 56.1926,244.3707 55.8336,245.0237 C49.8986,251.5757 42.7566,257.3097 41.2986,266.8607 C40.5936,271.4757 38.7536,275.7077 36.5926,279.8087 C36.4386,280.1317 36.2846,280.4557 36.1306,280.7797 C36.5266,280.7197 36.9226,280.6597 37.3186,280.5997 C43.2596,279.1507 48.3246,276.0937 53.0696,272.3207 C58.7926,267.7727 61.8746,262.5147 58.5496,255.1427 C58.6246,251.1197 58.6996,247.0967 58.7746,243.0737 C58.7286,242.5107 58.7426,241.4737 58.6266,241.4587 C57.4996,241.3147 57.2236,242.2357 56.9126,243.0667 L56.9126,243.0667 Z M58.8456,204.0527 C58.7686,204.9007 58.8836,205.6817 59.6306,206.2337 C60.1886,208.2057 58.7826,211.8037 62.2616,211.4957 C65.7396,211.1897 69.5536,211.5477 72.9606,209.4637 C68.7136,207.3857 64.1446,207.4047 59.9796,205.9267 C59.8476,205.1527 59.6956,204.3917 58.1136,203.5037 C58.3576,203.6867 58.6016,203.8697 58.8456,204.0527 C58.8086,203.7397 58.7956,203.4217 58.7236,203.1167 C58.6916,202.9767 58.5446,202.8617 58.4496,202.7357 C58.3396,202.9877 58.2306,203.2387 58.8456,204.0527 L58.8456,204.0527 Z M106.9296,216.9177 L106.9846,216.9627 C107.1946,216.0487 106.8946,215.6487 105.9306,215.9167 L105.9866,215.9607 C106.2016,215.0457 105.9616,214.5867 104.9376,214.9127 L104.9876,214.9557 C105.2666,213.9777 104.9576,213.5897 103.9406,213.9107 L103.9936,213.9517 C104.2846,212.9597 104.0176,212.5307 102.9456,212.9097 L102.9926,212.9477 C103.3576,211.8947 103.0076,211.5517 101.9566,211.9087 L102.2176,211.8507 L102.2116,211.5827 C102.5116,210.5767 101.6566,210.1187 101.1906,209.5037 C93.5926,199.4927 83.0516,194.2827 71.2986,190.8447 C67.8156,189.8257 65.9506,190.6957 64.8366,193.9157 C59.8846,199.6977 60.4296,201.5237 67.7166,203.3787 C72.7216,204.6527 77.5026,206.5167 82.1656,208.7107 C93.0236,213.8217 103.0366,220.3117 112.6416,227.4547 C113.9366,228.4187 114.9156,229.2157 116.3236,227.4527 C117.6456,225.7987 116.4866,225.1157 115.5376,224.2337 C115.0586,223.7897 114.5126,223.4157 113.9976,223.0107 C113.6246,222.6627 113.2516,222.3147 112.8786,221.9667 L112.9296,222.0177 C112.9056,221.3337 112.4776,221.0607 111.8686,220.9687 L111.9236,221.0037 C111.5326,220.1937 111.1076,219.4407 109.9886,219.7787 L110.0846,219.8697 C110.0706,218.4787 109.3546,217.8237 107.9786,217.8617 L107.9856,217.9627 C108.2056,217.0357 107.8616,216.6797 106.9296,216.9177 L106.9296,216.9177 Z M223.5116,260.3857 C224.4186,269.0947 228.0746,276.1167 235.3666,281.3497 C240.1356,284.7717 244.4066,288.8857 249.8696,293.5107 C237.1426,292.5037 225.4636,293.7907 214.1996,290.0787 C212.8006,289.6177 211.5076,288.8577 210.7736,291.1967 C209.1296,296.4357 207.2696,301.4907 208.6386,307.2267 C212.6346,323.9597 207.6666,338.3737 196.6586,351.0517 C188.0396,360.9807 179.3666,370.8627 170.6866,380.7367 C169.9726,381.5497 169.5666,382.8257 167.6766,382.8447 C173.0106,369.6877 178.2576,356.7007 183.5426,343.7307 C185.0116,340.1247 185.8556,336.4867 185.1766,332.5507 C184.8286,330.5267 184.5836,329.7947 182.1076,330.7137 C176.7136,332.7157 173.1386,336.3457 170.9496,341.4387 C168.0076,348.2827 165.2536,355.2087 162.0776,362.9307 C159.0806,357.0577 156.3046,351.6157 153.5666,346.2487 C140.4886,352.2757 135.9586,365.2647 128.4626,376.6227 C124.7946,371.0707 121.1466,366.0247 118.0126,360.6757 C114.6196,354.8857 109.6936,350.8607 104.3906,347.0407 C102.4836,345.6677 101.9506,346.4017 101.1936,347.9647 C98.8466,352.8067 96.4506,357.6237 93.7706,363.0667 C90.5836,355.3507 87.7586,348.3697 84.8186,341.4387 C82.5646,336.1217 78.7576,332.4597 73.2016,330.5167 C71.3136,329.8557 70.9606,330.2757 70.6846,331.9997 C70.0316,336.0717 70.6576,339.8857 72.2016,343.6957 C77.4646,356.6927 82.6056,369.7407 87.4486,382.9997 C76.2336,369.8877 63.8796,357.8247 53.7226,343.8667 C51.5676,340.9047 50.1066,337.5477 48.7606,334.1427 C45.3456,325.5027 44.7696,316.6307 47.0556,307.6967 C48.5646,301.8007 46.7186,296.5837 44.9896,291.1817 C44.2216,288.7797 42.9606,289.6217 41.5966,290.0777 C30.3306,293.8427 18.6286,292.4417 5.8696,293.5477 C11.3256,288.9237 15.5806,284.8027 20.3466,281.3967 C27.6496,276.1767 31.3096,269.1537 32.2746,260.4617 C32.4036,260.0437 32.5336,259.6257 32.6626,259.2087 C32.2426,259.2207 31.8226,259.2327 31.4036,259.2447 C22.2356,262.8667 14.3936,268.8867 5.7406,273.4417 C4.1876,274.2587 2.7136,275.2307 -0.0004,276.8477 C11.4416,259.4577 20.2806,241.7337 39.8416,233.6417 C46.2816,230.9777 48.6856,224.5237 51.4406,218.6217 C52.2356,216.9177 51.2796,215.6937 50.8066,214.3747 C46.7856,203.1577 44.5786,191.5247 44.4006,179.7017 C44.3416,175.8027 42.2036,172.4787 42.8126,168.5937 C43.0856,166.8497 40.9736,166.4567 39.8636,165.5697 C27.1296,155.3997 17.4596,143.2697 15.4566,126.4757 C13.7156,111.8807 19.5306,99.5097 27.5476,87.9207 C31.8156,81.7517 36.6706,76.0317 41.8186,70.5927 C52.4856,59.3227 56.6256,45.6437 56.8606,30.5257 C57.0106,20.9277 56.8896,11.3257 57.3136,1.5737 C64.7016,16.7397 75.8526,30.1037 78.0376,47.6617 C79.8516,62.2307 76.6166,75.3697 67.9716,87.2117 C63.3496,93.5437 59.1406,100.0997 57.6586,107.9817 C55.8886,117.4037 58.8116,121.0487 68.2326,121.6237 C70.0756,121.7367 70.4006,120.5357 71.1336,119.4997 C80.9056,105.6707 93.4246,95.6437 109.5706,89.8047 C115.3386,87.7187 120.2886,83.2267 125.4036,79.5417 C127.4136,78.0937 128.5846,78.1937 130.5346,79.6047 C138.1986,85.1437 146.1396,90.0287 155.0376,93.6917 C167.2916,98.7347 176.5606,107.9597 184.1826,118.7697 C185.2316,120.2567 185.9936,122.7547 188.6466,121.1527 C191.7866,119.2567 197.0776,121.0937 198.1666,115.6317 C199.3366,109.7607 197.4816,104.4537 195.1166,99.2717 C193.1826,95.0287 190.5946,91.1687 187.8576,87.3947 C174.5286,69.0127 174.0696,49.3857 183.1406,29.3407 C187.4726,19.7687 193.0936,10.7797 198.8296,0.2417 C198.8296,10.5537 198.9066,19.4327 198.8136,28.3097 C198.6356,45.1387 203.4906,59.8827 215.3416,72.3427 C224.9786,82.4737 233.5786,93.4577 238.0736,107.0917 C243.2306,122.7327 240.0996,136.8957 230.8706,150.0617 C226.9296,155.6857 222.2746,160.6827 216.7406,164.7577 C214.2356,166.6027 213.3156,168.5957 212.5226,171.8077 C210.6316,179.4687 211.9826,187.2957 210.0986,194.9007 C208.7836,200.2087 207.8466,205.6247 206.1966,210.8547 C203.7106,218.7417 206.4286,228.9407 214.0716,232.3907 C231.8166,240.4007 242.3836,254.9197 251.8396,270.7657 C252.9006,272.5437 255.0426,273.8587 254.5786,276.3967 L254.7846,276.4507 C244.6656,270.6047 235.0586,263.8547 224.2606,259.2127 C223.8506,259.2147 223.4406,259.2177 223.0306,259.2197 L223.5116,260.3857 Z" mask="url(#viking-b)"/>
    </g>
    <g transform="translate(254 276.759)">
      <mask id="viking-d" fill="#fff">
        <use xlink:href="#viking-c"/>
      </mask>
      <path fill="#070605" d="M0.5789,0.3963 C0.6699,0.3433 0.7609,0.2903 0.8519,0.2363 C0.8229,0.3063 0.7949,0.3773 0.7749,0.4493 C0.7849,0.4513 0.5789,0.3963 0.5789,0.3963" mask="url(#viking-d)"/>
    </g>
    <path fill="#32522B" d="M144.8171,128.3936 C144.8181,121.2336 144.8071,114.0736 144.8211,106.9136 C144.8321,100.8856 144.9691,100.8046 150.5891,103.5806 C167.0901,111.7286 177.6941,125.1626 184.7281,141.7686 C189.1211,152.1396 190.5751,163.1476 191.8151,174.2226 C192.3001,178.5526 190.3051,179.2956 186.6311,178.8806 C161.9821,176.0966 137.2401,175.3656 112.4601,175.9326 C99.0211,176.2406 85.5991,177.0176 72.2491,178.7126 C64.5751,179.6866 64.4941,179.6776 64.7171,172.3736 C65.2781,154.0566 70.9561,137.5216 82.0451,122.8756 C88.4851,114.3696 96.4201,107.7396 106.0471,103.0706 C109.5421,101.3756 111.0311,101.4756 110.9481,106.0076 C110.7291,117.9926 111.4591,130.0216 110.6821,141.9596 C110.0971,150.9446 112.7511,157.7136 118.7421,164.2956 C128.2231,174.7116 127.5131,174.7086 137.0091,164.2266 C142.9891,157.6256 146.1111,150.8146 144.9201,141.8676 C144.3311,137.4496 144.8171,132.8896 144.8171,128.3936"/>
    <path fill="#E6820A" d="M140.9431,303.7773 C147.4841,302.5983 154.1671,302.0433 160.4321,299.6303 C163.6841,298.3783 167.0311,297.1893 169.9681,295.3793 C171.5401,294.4103 172.2211,293.2453 173.7531,295.2943 C174.9431,296.8853 176.5261,297.8343 174.6501,300.2233 C170.8541,305.0573 167.6301,310.3393 163.8321,315.1723 C160.3101,319.6523 157.0471,324.1923 155.2361,329.6633 C153.8441,333.8613 150.5951,336.4723 147.0621,338.7713 C139.4421,343.7293 132.5721,349.4183 127.9181,359.0673 C123.2491,347.8193 113.9771,342.3913 105.4701,336.1283 C103.4531,334.6423 101.7791,332.6643 101.0011,330.2273 C99.1931,324.5703 96.1541,319.6573 92.2051,315.2983 C90.6121,313.5403 90.3471,312.1953 92.0431,310.2153 C94.3271,307.5513 96.0201,304.3473 96.5741,300.8803 C97.0801,297.7093 98.3041,298.2873 100.5421,299.0953 C106.3481,301.1943 112.4061,302.3683 118.5601,302.8953 C120.0631,303.0243 121.9341,303.9323 122.9551,301.8123 C128.9631,302.3563 135.2521,300.3313 140.9431,303.7773"/>
    <path fill="#32522B" d="M57.0647,196.5791 C55.2287,193.7421 55.6667,190.4751 55.0227,187.5071 C54.6217,185.6561 56.1997,185.0291 57.8647,184.8381 C66.4287,183.8571 74.9677,182.5601 83.5567,181.9011 C106.6447,180.1311 129.7857,180.4881 152.9087,180.8721 C168.0137,181.1231 183.0197,182.9071 198.0057,184.7751 C200.5227,185.0891 201.1297,186.2421 200.8027,188.3711 C200.3847,191.0981 199.8797,193.8111 199.3117,197.1131 C196.4827,195.0371 195.0007,192.6711 193.6107,190.3691 C191.5507,186.9531 188.6437,186.0671 185.0987,187.0441 C172.3937,190.5481 160.6167,195.7471 152.1967,206.4581 C150.7567,208.2901 149.2857,208.8191 147.1377,208.8081 C134.3147,208.7481 121.4917,208.7231 108.6707,208.8321 C106.4147,208.8511 105.0567,208.0341 103.6497,206.3671 C95.6667,196.9101 85.3857,191.0541 73.5577,187.8401 C65.5277,185.6591 65.4827,185.7941 60.7927,192.4201 C59.7687,193.8671 59.1057,195.6921 57.0647,196.5791"/>
    <path fill="#E4810A" d="M97.7419,269.3906 C94.5879,270.3756 93.1899,272.7506 92.6649,275.8156 C89.7219,278.1386 89.7539,280.4696 92.6469,282.8086 C92.7419,284.7966 92.8379,286.7856 92.9319,288.7736 C91.7899,294.5596 90.6469,300.3456 89.5039,306.1326 C89.5039,306.1326 89.3539,306.4356 89.3509,306.4306 C86.7429,306.4406 87.0169,304.6656 86.7559,302.8156 C86.4229,300.4616 88.5479,297.4056 85.0609,295.8146 C83.3879,290.4076 81.8179,284.9866 81.6359,279.2616 C81.1609,264.3696 89.8839,257.1906 104.2289,260.9536 C113.2569,263.3236 122.2679,263.5886 131.3949,261.8656 C137.5359,260.7056 143.1209,258.3576 148.1889,254.6416 C161.6509,244.7746 176.3069,250.9886 178.7439,267.5586 C179.0329,269.5276 179.3509,271.5866 179.0809,273.5246 C177.9219,281.8456 180.3709,289.2996 184.1419,296.4986 C184.4999,297.1816 185.1999,297.8506 184.3039,299.1056 C176.9639,293.5706 170.8919,287.4036 169.8389,277.6216 C169.4299,273.8326 168.6219,270.0626 167.0539,266.5406 C164.4759,260.7546 161.2389,258.9756 155.1159,260.6536 C147.6059,262.7106 140.5649,266.3196 132.7199,267.3476 C127.4499,268.0376 122.2439,269.2736 116.8729,268.8996 C113.5289,267.1806 110.1799,267.2126 106.8279,268.8766 C104.8419,268.8846 102.8559,268.8926 100.8699,268.9006 C99.5559,267.3346 98.5289,267.5936 97.7419,269.3906"/>
    <path fill="#F5F5F5" d="M116.8044,285.6113 C120.9504,285.3303 125.0964,285.0523 129.2414,284.7683 C131.7384,284.5963 134.2694,284.2373 136.3694,286.1323 C138.0814,282.8353 140.0104,283.9713 141.9764,285.8573 C143.5964,281.1383 148.2114,287.4343 150.1044,283.6593 C150.1464,283.5753 150.4994,283.5253 150.5714,283.5963 C154.0844,287.0883 156.8564,281.7613 160.1824,282.7903 C161.4094,283.1703 163.4464,281.7613 163.6764,284.2263 C163.8534,286.1093 164.3944,288.0993 161.7294,289.1853 C154.8854,291.9743 147.9614,294.0593 140.4504,293.4463 C128.6814,292.4873 116.9094,291.5773 105.1394,290.6453 C101.6854,290.3723 97.9224,290.6473 97.4714,285.6663 C97.0934,281.5033 100.1734,277.2343 104.7444,276.4283 C111.5994,275.2203 118.5214,274.4003 125.3954,273.2983 C135.2284,271.7213 145.0424,270.0313 154.8684,268.4113 C156.8544,268.0833 159.0144,267.7523 160.5764,269.2553 C162.3284,270.9393 162.9174,273.4813 162.6774,275.6923 C162.4374,277.9103 159.8594,277.4083 158.2424,277.6633 C144.4534,279.8343 130.6494,281.9003 116.8504,283.9983 C114.0424,284.3663 111.2334,284.7343 108.4254,285.1023 L108.4714,286.1393 C111.2484,285.9643 114.0264,285.7873 116.8044,285.6113"/>
    <path fill="#E0E0E0" d="M51.9465 145.8564L50.3165 153.5514C45.7645 149.6524 41.8865 145.0924 38.3395 140.3334 29.6035 128.6144 27.1375 115.8624 32.9525 102.0064 33.3855 100.9744 33.4665 99.7934 33.7105 98.6814 37.2885 92.7374 41.5295 87.4244 46.3315 82.3114 54.0265 74.1194 60.3205 64.7214 63.8645 53.8084 66.1705 54.1104 65.5205 50.5954 67.7505 50.8004 67.8115 51.7934 67.8715 52.7874 67.9315 53.7814 66.2605 55.8034 66.2535 57.8224 67.9405 59.8384 67.8955 60.4984 67.8515 61.1574 67.8065 61.8164 65.9285 61.8874 66.0925 63.3774 65.6895 64.6344 62.8575 73.4574 58.4115 81.4024 52.0095 88.1114 41.3635 99.2704 39.3265 117.7554 48.1125 130.4204 51.3065 135.0264 54.7215 138.9514 51.1625 144.7454 51.0695 144.8974 51.6695 145.4764 51.9465 145.8564M190.8708 50.8149C193.2538 59.1339 197.0788 66.8269 202.0728 73.7959 204.4028 77.0479 207.2478 80.1729 210.0688 82.9489 214.8808 87.6819 218.4818 93.0849 221.9778 98.6829 221.6408 100.4569 222.6768 101.8729 223.2458 103.3959 226.3668 111.7479 226.8828 120.1489 223.7438 128.6059 220.0098 138.6689 212.8728 146.2449 205.3728 153.5429 203.7888 147.9979 202.2058 142.4519 200.6228 136.9069 202.8568 137.1279 204.4238 135.9729 205.7318 134.3649 215.1228 122.8349 216.7188 101.9279 205.6588 89.9739 199.1168 82.9029 193.6968 74.9299 190.9028 65.5079 189.7528 61.6279 188.7928 57.6929 187.7458 53.7829 187.8108 52.7889 187.8768 51.7939 187.9418 50.7999 188.9188 50.8049 189.8948 50.8099 190.8708 50.8149"/>
    <path fill="#F7D6AD" d="M114.8577,242.8262 C115.4067,242.3602 115.9557,241.8942 116.5037,241.4292 C117.0307,240.9722 117.5587,240.5162 118.0867,240.0602 C120.4397,239.2942 122.0247,237.6672 122.9307,235.4372 C123.2697,234.6042 124.7777,233.3232 122.6237,232.7972 C121.4717,232.5142 120.2207,232.5982 120.0387,234.2502 C119.8007,236.4122 118.0447,237.6062 116.9337,239.2122 L115.7117,240.6712 C115.2707,241.1682 114.8297,241.6662 114.3887,242.1642 C114.1387,242.7302 112.4717,242.6682 113.5327,243.7222 C113.9617,244.1472 114.7227,243.6122 114.8577,242.8262 M86.8807,246.8492 C90.2097,244.4762 93.5377,242.1022 96.8657,239.7292 C99.6797,239.7712 102.5507,240.1812 105.2957,239.7662 C109.5487,239.1222 114.2957,239.1562 116.7837,234.5052 C117.8307,233.3192 118.8777,232.1342 119.9257,230.9462 C125.2227,229.7602 130.5207,229.2682 135.8257,230.8892 C136.7687,231.5852 137.6647,232.3172 137.9917,233.5192 C137.2197,234.9462 136.7177,236.4472 136.7347,238.0912 C135.0017,237.2482 134.7377,235.5842 134.3927,233.9492 C134.1137,232.6322 133.0687,232.6622 132.0557,232.7292 C130.8427,232.8092 130.6217,233.7402 131.2107,234.4122 C133.4547,236.9672 133.1887,241.6912 137.8437,242.1612 C137.8677,244.8202 136.7037,246.2552 133.8937,245.9922 C133.3147,243.1182 130.7567,243.6722 128.8957,243.2752 C126.0727,242.6732 123.6687,244.8772 120.8737,244.8222 C119.2347,246.1762 119.6517,241.5692 117.6597,243.7382 C116.0057,245.5402 114.9747,247.1782 117.7707,248.8742 C118.3517,249.2262 117.9117,249.6812 117.4677,249.9542 C112.1287,249.3412 107.0907,249.6472 104.0477,254.9992 C103.0937,256.6772 101.7927,255.9932 100.5867,255.8632 C93.9967,255.1522 87.9827,256.5062 83.2677,261.3432 C81.3427,263.3172 80.5097,261.9862 79.3817,260.8652 C73.5117,255.0332 71.5707,248.0402 73.2937,239.9862 C77.7687,236.6692 82.9887,238.1772 87.9067,237.7272 C89.9267,237.7922 92.4457,237.5482 89.8977,240.6682 C88.4667,242.4202 87.1387,244.2152 86.4957,246.4252 C86.3657,246.8072 86.2337,247.1902 86.1027,247.5722 C86.7897,247.7912 86.7847,247.2652 86.8807,246.8492"/>
    <path fill="#F4D4AB" d="M136.7351,238.0908 C136.7171,236.4468 137.2191,234.9458 137.9921,233.5198 C138.3181,233.8188 138.6441,234.1178 138.9721,234.4188 C141.1571,238.1348 147.9711,240.1018 153.6981,239.4488 C163.1411,238.3738 172.5061,233.0598 182.1591,238.5718 L181.8931,238.6368 C181.8931,238.6368 182.1561,238.5868 182.1561,238.5878 C181.9231,239.1858 182.1931,239.5698 182.6951,239.8558 C183.4161,242.3618 183.1241,244.7608 182.1051,247.1528 C181.2351,249.1978 180.0421,251.1468 178.2941,252.3088 C175.5121,254.1588 174.8711,250.6738 173.3371,249.6298 C167.0541,245.3578 160.3231,244.3338 153.3901,247.0758 C150.6071,248.1768 148.6731,248.2048 146.2791,246.6198 C144.2371,245.2678 141.8391,245.4548 138.7251,246.2418 C141.4871,247.3158 143.9321,247.5568 145.6061,249.2848 C138.4961,257.2038 121.7011,259.6878 108.8611,254.6808 C110.4721,250.7878 115.1411,252.4818 117.4681,249.9538 C117.9111,249.6818 118.3511,249.2268 117.7701,248.8738 C114.9741,247.1778 116.0061,245.5398 117.6601,243.7378 C119.6521,241.5698 119.2351,246.1758 120.8741,244.8218 C120.8391,245.4558 120.8031,246.0908 120.7721,246.7288 C120.7391,246.7058 120.7011,246.6788 120.6631,246.6528 C125.0711,246.4008 129.4161,244.8478 133.8931,245.9918 C136.7041,246.2548 137.8681,244.8198 137.8431,242.1608 L138.8891,241.8238 C139.3951,241.5288 140.3141,241.2578 140.3331,240.9348 C140.3981,239.8098 139.3861,239.9688 138.6331,239.8968 C138.0011,239.2938 137.3681,238.6928 136.7351,238.0908"/>
    <path fill="#E6820A" d="M56.8572,312.8154 C58.4522,304.2714 57.7052,296.0224 54.3722,287.9074 C51.1202,279.9884 56.2142,275.2134 61.9812,270.4044 C65.6892,280.7804 70.3702,290.5954 76.1912,299.8414 C77.2422,301.5104 76.2412,303.1354 75.6952,304.6124 C74.2992,308.3854 72.0862,311.7384 69.3812,314.6914 C64.4552,320.0714 60.9012,326.0844 60.1612,334.9244 C58.1492,331.2454 57.0372,328.7204 56.8942,325.7994 C58.4252,321.4674 58.4882,317.1394 56.8572,312.8154"/>
    <path fill="#E5820A" d="M66.8962 223.8105C66.9022 221.9795 66.9842 220.1445 66.8942 218.3185 66.8102 216.6285 67.5062 215.8825 69.1752 215.8175 70.8892 215.7495 70.9312 216.9275 71.0832 218.1115 71.9132 224.5985 72.1512 230.9065 69.3162 237.1845 65.7572 245.0665 68.9552 258.2535 75.7402 263.2125 78.3602 265.1275 79.4032 267.0295 78.2832 270.7055 75.7542 279.0025 78.1872 287.1755 80.4202 295.2245 80.6852 296.1785 81.2002 297.0675 80.3322 298.5285 71.0962 282.8985 62.9392 267.2455 62.6412 248.7345 62.5132 240.8135 66.1832 233.5705 66.7742 225.7765 69.8162 229.2485 65.9882 233.1405 67.2282 237.1735 70.0952 230.9345 70.6252 225.5665 69.1782 219.0665 68.1652 220.5265 70.0132 223.3675 66.8962 223.8105M113.9973 223.7695C114.5123 224.1745 115.0583 224.5485 115.5373 224.9935 116.4863 225.8745 117.6453 226.5575 116.3243 228.2115 114.9153 229.9745 113.9363 229.1775 112.6423 228.2135 103.0363 221.0705 93.0233 214.5815 82.1653 209.4695 77.5023 207.2755 72.7223 205.4125 67.7173 204.1375 60.4293 202.2825 59.8853 200.4575 64.8363 194.6755 77.6643 196.2695 89.1283 200.7565 98.1943 210.3595 99.2743 211.5035 100.0833 213.2835 102.2113 212.3415L102.2173 212.6095C102.2173 212.6095 101.9563 212.6675 101.9563 212.6675 101.9973 213.3195 102.3433 213.6655 102.9933 213.7065 102.9933 213.7065 102.9453 213.6685 102.9453 213.6695 102.9933 214.3215 103.3403 214.6705 103.9933 214.7105 103.9933 214.7105 103.9403 214.6695 103.9403 214.6705 103.9873 215.3225 104.3363 215.6705 104.9883 215.7145 104.9883 215.7145 104.9373 215.6715 104.9373 215.6725 104.9853 216.3245 105.3393 216.6685 105.9863 216.7195 105.9863 216.7195 105.9303 216.6755 105.9303 216.6765 105.9893 217.3215 106.3403 217.6695 106.9853 217.7215L106.9293 217.6765C106.9893 218.3215 107.3413 218.6695 107.9863 218.7215 107.9863 218.7215 107.9783 218.6215 107.9783 218.6225 108.0913 219.9105 108.8213 220.5495 110.0843 220.6285 110.0843 220.6285 109.9893 220.5385 109.9883 220.5405 110.1433 221.7235 110.9503 221.8755 111.9243 221.7625L111.8683 221.7275C112.2223 222.0775 112.5763 222.4265 112.9293 222.7765L112.8783 222.7255C113.2513 223.0735 113.6243 223.4215 113.9973 223.7695M190.9275 194.6631C195.9365 200.3941 195.3665 202.2031 188.1375 204.1451 172.1325 208.4451 158.4925 217.2771 145.1815 226.7201 144.3685 227.2961 143.5505 227.8691 142.7885 228.5081 141.5115 229.5791 140.4985 229.4141 139.4635 228.1091 138.3385 226.6921 138.7845 225.8941 140.1175 224.9031 142.7605 222.9381 145.2495 220.7671 147.8025 218.6831 152.3545 217.8181 154.3065 213.7001 157.0885 210.8341 166.4345 201.2041 177.9475 196.4881 190.9275 194.6631M36.5925 280.5664C38.7535 276.4664 40.5935 272.2344 41.2985 267.6204 42.7575 258.0684 49.8985 252.3354 55.8335 245.7824 56.9025 247.5184 56.8215 249.4464 56.8755 251.3844 56.9225 253.0364 56.2045 255.0674 58.5505 255.9014 61.8745 263.2734 58.7925 268.5314 53.0705 273.0804 48.3245 276.8524 43.2595 279.9104 37.3195 281.3584 37.0765 281.0944 36.8345 280.8314 36.5925 280.5664"/>
    <path fill="#E4810A" d="M188.7341,228.7881 C188.8571,229.0561 188.9171,229.3371 188.9141,229.6321 C189.8451,231.2521 186.5641,234.2421 190.6101,234.8501 C196.9901,248.9811 191.7011,267.9561 183.9161,283.2891 C182.2991,281.5151 183.0051,279.5291 183.1151,277.7481 C183.5071,271.3911 183.3651,265.1031 180.5641,259.2281 C179.7891,257.6031 179.8431,256.5951 181.2011,255.3731 C186.7831,250.3461 188.3961,244.0671 186.7701,236.8431 C188.4441,235.6411 187.0021,234.5341 186.6541,233.4041 C185.1151,228.3911 185.9941,223.4481 186.5421,218.4821 C189.0391,221.7051 186.5081,225.6331 188.7341,228.7881"/>
    <path fill="#E5820A" d="M197.7351,253.7852 L197.8961,251.8102 C200.1761,251.9102 199.7611,248.2842 202.2451,248.6652 C209.1951,254.3272 213.7611,261.3732 215.1111,270.3822 C215.6591,274.0382 217.5781,277.2192 219.1591,280.5012 C218.9021,280.7712 218.6451,281.0432 218.3881,281.3142 C211.6131,279.6462 205.9941,276.0172 200.8431,271.3972 C196.6081,267.5982 194.5291,263.4632 197.1851,257.9132 C199.4201,256.8072 199.3571,255.3992 197.7351,253.7852"/>
    <path fill="#F5F5F5" d="M187.7458,53.7832 C188.7928,57.6932 189.7528,61.6282 190.9028,65.5082 C193.6968,74.9302 199.1168,82.9032 205.6588,89.9742 C216.7188,101.9282 215.1228,122.8342 205.7318,134.3652 C204.4238,135.9732 202.8568,137.1282 200.6228,136.9072 C199.7888,135.6022 198.3668,134.5142 200.2318,132.7762 C210.6238,123.0952 210.1298,111.4702 205.8248,99.3532 C203.4238,92.5952 199.3208,86.7522 195.1998,80.9232 C189.4688,72.8152 186.5668,63.8352 187.7458,53.7832"/>
    <path fill="#878787" d="M205.3728 153.543C212.8728 146.245 220.0098 138.669 223.7438 128.606 226.8828 120.149 226.3668 111.748 223.2458 103.396 222.6768 101.873 221.6408 100.457 221.9778 98.683 231.1878 111.259 233.0308 124.703 226.1738 138.857 221.8938 147.689 215.2478 154.585 206.8018 160.242 205.3448 158.067 205.7498 155.705 205.3728 153.543M33.7107 98.6811C33.4657 99.7931 33.3857 100.9741 32.9527 102.0071 27.1377 115.8621 29.6037 128.6141 38.3397 140.3331 41.8867 145.0921 45.7647 149.6531 50.3157 153.5511 50.0717 155.6391 49.8277 157.7271 49.5647 159.9771 28.2177 147.6981 16.6007 121.0751 33.7107 98.6811"/>
    <path fill="#E4810A" d="M193.8953,307.8545 C192.9463,302.2095 189.0543,297.9105 186.9543,292.7795 C186.0703,290.6225 186.0073,288.9865 187.0653,286.8305 C189.6013,281.6605 191.7443,276.2965 194.0433,271.0155 C203.3023,278.1315 204.2683,281.9455 199.5553,292.8155 C197.3003,294.7655 195.7573,296.8795 197.9403,299.8495 C197.9223,301.8325 197.9053,303.8145 197.8873,305.7955 C196.9203,306.4575 195.9533,307.1185 194.9863,307.7795 C194.5913,307.7815 194.1973,307.7845 193.8023,307.7875 L193.8953,307.8545 Z"/>
    <path fill="#F5F5F5" d="M51.9465,145.8564 C51.6695,145.4764 51.0695,144.8974 51.1625,144.7454 C54.7215,138.9514 51.3065,135.0264 48.1125,130.4204 C39.3265,117.7554 41.3635,99.2704 52.0095,88.1114 C58.4115,81.4024 62.8575,73.4574 65.6895,64.6344 C66.0925,63.3774 65.9285,61.8874 67.8065,61.8164 C67.3065,69.3274 64.1925,75.7954 59.8815,81.8024 C54.0605,89.9114 48.8755,98.3124 47.4885,108.4954 C46.2345,117.6964 48.0505,125.9334 55.0505,132.4684 C56.2005,133.5424 56.5795,134.2354 55.9315,135.7304 C54.4885,139.0564 53.2615,142.4754 51.9465,145.8564"/>
    <path fill="#934C15" d="M175.656,306.4883 C177.917,309.9003 179.643,312.9083 181.769,315.6013 C183.76,318.1233 182.977,319.8573 180.708,321.2723 C178.751,322.4923 176.61,323.4183 174.541,324.4553 C169.284,327.0883 165.786,331.3753 162.967,336.4003 C162.325,337.5433 162.369,340.4923 160.147,339.1793 C158.408,338.1523 156.811,336.2303 158.166,333.2953 C160.735,327.7233 163.184,322.2003 167.389,317.5423 C170.358,314.2553 172.74,310.4373 175.656,306.4883"/>
    <path fill="#878787" d="M67.9495 136.9497C64.7165 147.0607 61.2595 157.1117 60.2835 167.7917 60.1265 169.5107 59.3185 171.1947 57.1555 170.8347 54.7725 170.4387 53.1845 168.8887 53.3635 166.3667 54.1385 155.3917 55.7105 144.5957 61.2965 134.8207 63.9015 134.3197 66.0325 135.3017 67.9495 136.9497M194.4246 134.8135C199.9796 144.6175 201.6516 155.4225 202.2946 166.4225 202.5206 170.2785 198.9636 170.6805 195.9106 172.3725 195.2816 159.5815 191.7736 148.1845 187.7656 136.9095 189.8236 135.6995 191.8536 134.3945 194.4246 134.8135"/>
    <path fill="#E5820A" d="M193.7937,217.5049 C197.6757,233.9419 209.5117,242.7689 223.7677,249.6659 C220.0227,249.8159 216.7067,250.1839 213.9337,252.4309 C213.1647,253.0539 212.4587,252.9819 211.7697,252.2669 C202.3557,242.4929 193.7847,232.2739 193.7937,217.5049"/>
    <path fill="#E4810A" d="M192.9167,323.8125 C192.7627,323.5685 192.7127,323.3055 192.7687,323.0225 C192.7907,322.0355 192.6107,321.1745 191.4567,320.9225 C186.8497,314.8475 180.8847,309.6135 179.0847,300.9525 C184.3067,303.5685 188.3467,307.4475 193.8957,307.8545 L193.8027,307.7875 C193.7157,308.5715 194.2807,308.6925 194.8457,308.8135 C200.0197,314.7865 197.7777,321.2595 196.6987,328.9185 C195.0527,325.4185 195.0527,325.4185 192.9167,323.8125"/>
    <path fill="#934C15" d="M76.8074,321.8506 C78.9154,320.8816 81.3944,320.3296 83.0524,318.8556 C86.1804,316.0736 87.9004,316.5806 90.5364,319.7526 C94.1664,324.1216 95.7504,329.3796 98.2754,334.2156 C99.6994,336.9446 96.9014,338.2296 95.4674,339.3056 C93.8114,340.5496 93.5104,338.0966 93.1194,337.1596 C89.9704,329.5986 83.5304,325.5946 76.8834,321.7766 L76.8074,321.8506 Z"/>
    <path fill="#F5F5F5" d="M96.948,231.6494 C94.606,231.3034 91.162,230.9084 87.765,230.2624 C84.509,229.6444 83.361,228.0234 85.127,224.6884 C88.359,218.5834 88.936,218.3124 94.844,221.7614 C97.12,223.0904 99.449,224.3364 101.667,225.7544 C102.934,226.5664 105.215,226.8004 104.648,229.0474 C104.079,231.3044 102.27,231.9814 100.034,231.6634 C99.387,231.5714 98.716,231.6494 96.948,231.6494"/>
    <path fill="#EBA04A" d="M190.9275,194.6631 C177.9475,196.4881 166.4345,201.2041 157.0885,210.8341 C154.3065,213.7001 152.3545,217.8181 147.8025,218.6831 C157.1125,204.8061 169.3085,195.0081 185.9475,191.2531 C189.2745,190.5021 189.9285,192.5751 190.9275,194.6631"/>
    <path fill="#D59962" d="M182.1589,238.5723 C172.5069,233.0593 163.1409,238.3743 153.6979,239.4493 C147.9709,240.1013 141.1569,238.1353 138.9719,234.4193 C139.7049,234.6903 140.4559,235.5233 141.2259,234.8523 C144.1839,232.2793 146.2979,233.8583 148.2969,236.1703 C149.3279,237.3613 150.2409,238.0163 152.0789,237.2603 C159.1329,234.3553 166.2959,233.2093 174.1569,233.2793 C179.2929,233.3253 181.5739,233.4963 182.1589,238.5723"/>
    <path fill="#777" d="M140.0984,149.7705 C141.1214,151.6475 140.5534,153.2125 139.2474,154.7255 C136.0114,158.4765 132.7854,162.2365 129.6404,166.0635 C128.5204,167.4275 127.7284,168.2235 126.2704,166.3575 C122.9284,162.0785 119.4354,157.9165 116.0034,153.7065 C117.2094,152.7675 116.5754,152.1435 115.6384,151.5715 L115.4664,151.2585 C115.4664,151.2585 115.6544,150.9545 115.6544,150.9545 C116.5184,150.8905 117.3824,150.8275 118.2454,150.7635 C120.4364,153.1885 122.9034,155.4225 124.7504,158.0865 C127.2024,161.6235 128.9444,161.0325 131.2034,157.9665 C133.3414,155.0655 135.8484,152.4365 138.1934,149.6875 C138.8284,149.7155 139.4634,149.7425 140.0984,149.7705"/>
    <path fill="#E5820A" d="M54.9363,238.8232 C52.4243,243.9832 48.2023,247.7522 44.3843,251.8562 C43.4053,252.9092 42.6363,253.0592 41.4603,252.1732 C38.7573,250.1332 35.5873,249.7262 32.0473,249.4042 C37.5653,246.2122 43.0823,243.0192 48.6003,239.8262 C49.9673,239.8082 50.8033,239.2212 50.8263,237.7592 C51.4233,237.0792 52.0203,236.3992 52.6183,235.7202 C54.1983,235.7512 54.8013,236.9142 55.3823,238.1022 C55.3823,238.1022 55.2933,238.3392 55.2913,238.3362 C55.0303,238.2902 54.7713,238.2472 54.5123,238.2052 C54.6543,238.4112 54.7953,238.6172 54.9363,238.8232"/>
    <path fill="#EBA04A" d="M102.2112,212.3418 C100.0842,213.2828 99.2742,211.5038 98.1942,210.3598 C89.1282,200.7568 77.6642,196.2698 64.8362,194.6758 C65.9502,191.4548 67.8152,190.5848 71.2982,191.6038 C83.0522,195.0418 93.5922,200.2518 101.1902,210.2628 C101.6572,210.8778 102.5122,211.3358 102.2112,212.3418"/>
    <path fill="#D59962" d="M87.907 237.7275C82.989 238.1765 77.768 236.6685 73.293 239.9865 78.225 233.2895 75.247 225.7705 75.511 218.5875 75.556 217.3795 74.316 215.5605 76.096 215.1395 78.452 214.5835 81.147 213.8405 83.388 214.9615 84.922 215.7305 83.089 216.8505 82.576 217.7005 80.53 221.0895 77.418 224.0755 78.158 228.5395 78.747 232.0885 79.782 235.3295 84.369 235.4925 85.809 235.5425 87.34 236.0185 87.907 237.7275M133.9548 297.1123C130.9598 297.1023 127.9658 297.0733 124.9708 297.0893 123.0798 297.0973 120.9568 296.5233 119.9918 299.0353 119.8498 299.4043 119.2058 299.8653 118.8498 299.8233 111.5678 298.9493 104.2078 298.2923 97.8348 294.3573 97.9198 293.9323 98.0048 293.5083 98.0898 293.0823 110.0368 294.0173 121.9848 294.9533 133.9308 295.8883 133.9368 296.2973 133.9458 296.7043 133.9548 297.1123"/>
    <path fill="#E0E0E0" d="M133.7898,108.4722 L133.7898,122.3882 C128.5078,118.2262 126.9258,118.2382 122.1808,122.6432 L122.1808,108.8782 C125.8938,113.0132 129.7058,113.4442 133.7898,108.4722"/>
    <path fill="#F5F5F5" d="M171.0056,226.7002 C164.8586,227.2662 159.1326,228.0452 153.7316,230.2152 C152.3216,230.7802 151.0386,231.0462 150.2476,229.6592 C149.1986,227.8182 151.2666,227.5302 152.1276,226.9762 C155.4706,224.8272 159.0906,223.0932 162.3426,220.8242 C165.1726,218.8512 166.9346,218.9912 168.3286,222.2982 C168.9516,223.7732 169.9966,225.0702 171.0056,226.7002"/>
    <path fill="#D59962" d="M141.7429,296.459 C149.7529,296.919 157.0399,294.38 164.2709,291.312 C166.8879,290.202 166.9609,288.345 166.9159,286.049 C170.7969,290.93 170.5949,292.199 165.3059,294.574 C159.5389,297.164 153.4749,298.771 147.2299,299.815 C144.8239,300.218 143.0949,299.703 141.7139,297.78 C141.7239,297.34 141.7329,296.899 141.7429,296.459"/>
    <path fill="#E0E0E0" d="M133.6267,127.7192 C132.2977,131.7552 133.1617,135.5202 132.8527,139.6742 C129.1177,137.0252 125.5067,136.0482 122.1887,141.4022 L122.1887,126.9442 C125.6247,131.3882 129.4037,131.1352 133.6267,127.7192"/>
    <path fill="#ACACAC" d="M118.2458 150.7637C117.3828 150.8267 116.5188 150.8907 115.6548 150.9547 115.6208 134.1657 115.5858 117.3767 115.5518 100.5877L117.6128 100.9047C117.6218 115.7267 117.6208 130.5487 117.6538 145.3707 117.6578 147.1807 117.3048 149.0497 118.2458 150.7637M140.0984 149.7705C139.4634 149.7425 138.8284 149.7155 138.1934 149.6875 138.2144 133.4425 138.2344 117.1975 138.2544 100.9535 138.8914 100.8205 139.5274 100.6875 140.1634 100.5545 140.1424 116.9595 140.1194 133.3655 140.0984 149.7705"/>
    <path fill="#D59962" d="M135.8259 230.8896C130.5199 229.2686 125.2219 229.7596 119.9259 230.9466 123.6979 226.2236 128.1999 221.8116 126.5079 214.8296 126.3239 214.0756 126.5099 213.0826 127.5379 212.9056 128.6639 212.7106 129.0479 213.6366 128.8599 214.4376 127.1679 221.6446 132.0079 226.0436 135.8259 230.8896M178.6716 230.3154C177.3516 225.3484 175.1476 221.3814 172.4606 217.7244 170.6986 215.3264 171.3846 214.6594 174.0046 214.5194 180.1476 214.1914 180.7636 214.6904 180.0646 220.6864 179.7126 223.6974 180.6786 226.9194 178.6716 230.3154"/>
    <path fill="#E5820A" d="M192.9167,323.8125 C195.0527,325.4185 195.0527,325.4185 196.6987,328.9185 C197.7777,321.2595 200.0197,314.7865 194.8457,308.8135 L194.9857,307.7795 C195.9527,307.1185 196.9207,306.4575 197.8877,305.7955 C200.1407,315.3715 201.1787,324.8635 195.5117,335.1815 C195.3027,330.4505 194.2347,327.0935 192.9167,323.8125"/>
    <path fill="#D59962" d="M146.363 212.8848C143.149 216.7578 140.092 219.2038 136.878 221.4668 134.622 223.0548 133.822 222.4058 133.678 219.6778 133.316 212.8118 133.211 212.8208 139.927 212.8818 141.72 212.8988 143.513 212.8848 146.363 212.8848M110.4646 212.8818C112.4266 212.8818 114.4396 213.1658 116.3396 212.8258 121.2756 211.9448 122.5546 213.9168 122.2346 218.6708 121.9756 222.4988 120.9966 223.2818 118.0516 220.9598 115.2486 218.7478 112.6436 216.2848 109.9506 213.9328 110.1216 213.5818 110.2936 213.2328 110.4646 212.8818"/>
    <path fill="#E4810A" d="M55.3826,238.1025 C54.8006,236.9145 54.1976,235.7505 52.6186,235.7205 C56.5716,230.0555 59.6616,223.9405 62.1096,217.4405 C63.2316,225.4665 59.5706,231.8715 55.3826,238.1025"/>
    <path fill="#D59962" d="M116.7834,234.5049 C114.2954,239.1559 109.5484,239.1219 105.2954,239.7669 C102.5504,240.1819 99.6794,239.7719 96.8664,239.7299 C97.3434,238.3409 98.2004,237.3919 99.7804,237.6229 C104.7204,238.3449 108.5204,236.9839 109.8884,231.9779 C112.7264,232.3529 113.6494,236.2289 116.7834,234.5049"/>
    <path fill="#E5820A" d="M188.7341,228.7881 C186.5081,225.6331 189.0391,221.7051 186.5421,218.4821 C185.9941,223.4481 185.1151,228.3911 186.6541,233.4041 C187.0021,234.5341 188.4441,235.6411 186.7701,236.8431 C182.7561,230.7801 184.2381,224.1481 184.7651,217.6101 C184.8871,216.0951 185.7041,215.7261 187.0931,215.8411 C188.4711,215.9531 189.2941,216.5061 189.2371,217.9431 C189.0931,221.5591 188.9051,225.1731 188.7341,228.7881"/>
    <path fill="#E0E0E0" d="M122.0613 104.6421C121.8493 97.9171 121.8543 98.2051 129.0403 98.0751 134.1863 97.9811 134.6893 100.3861 133.6173 104.3851 128.6423 100.1001 127.0433 100.0891 122.0613 104.6421M133.7498 145.0625C134.7788 149.8085 130.3178 151.4595 128.5568 154.5515 128.4478 154.7435 127.4348 154.7495 127.3228 154.5595 125.5148 151.4685 121.1848 149.7515 122.0238 145.0685 127.4788 149.6195 128.4278 149.6205 133.7498 145.0625"/>
    <path fill="#32522B" d="M182.9148 209.8603C187.4448 208.7253 191.9758 207.5903 196.6038 206.4313 196.5858 211.0783 195.0128 213.3423 190.0848 211.8843 187.7558 211.1963 185.2408 211.1323 182.8108 210.7863 182.8458 210.4773 182.8808 210.1693 182.9148 209.8603M59.9817 206.6836C64.1447 208.1636 68.7137 208.1446 72.9607 210.2226 69.5537 212.3066 65.7397 211.9486 62.2617 212.2546 58.7827 212.5626 60.1887 208.9646 59.6307 206.9936L59.9817 206.6836z"/>
    <path fill="#934C15" d="M76.8831,321.7764 C71.8791,319.6004 71.6691,318.9374 74.6381,314.8134 C75.4131,313.7374 76.1851,312.6564 76.9111,311.5474 C77.6211,310.4634 78.2711,309.3394 79.5461,307.2554 C80.0101,313.1514 77.0911,317.2704 76.8071,321.8504 L76.8831,321.7764 Z"/>
    <path fill="#E5820A" d="M85.0608,295.8145 C88.5478,297.4055 86.4228,300.4615 86.7558,302.8155 C87.0178,304.6665 86.7428,306.4405 89.3508,306.4305 C88.2828,308.8915 86.3748,310.6525 83.4128,313.6605 C84.9648,306.8625 85.5448,301.3595 85.0608,295.8145"/>
    <path fill="#E4810A" d="M140.9431,303.7773 C135.2521,300.3313 128.9631,302.3563 122.9551,301.8123 C122.7711,299.5583 124.4661,300.0933 125.6571,300.0753 C129.1361,300.0223 132.6391,300.2983 136.0921,299.9913 C139.1561,299.7183 140.7111,300.7363 140.9431,303.7773"/>
    <path fill="#E6820A" d="M66.8962,223.8105 C70.0132,223.3675 68.1652,220.5265 69.1782,219.0665 C70.6252,225.5665 70.0952,230.9345 67.2282,237.1735 C65.9882,233.1405 69.8162,229.2485 66.7742,225.7765 C66.8142,225.1215 66.8552,224.4655 66.8962,223.8105"/>
    <path fill="#E5820A" d="M89.5042,306.1328 C90.6472,300.3458 91.7902,294.5598 92.9322,288.7738 C94.1932,295.0338 93.2482,300.8608 89.5042,306.1328"/>
    <path fill="#878787" d="M130.9998 142.7866C130.7288 144.6186 129.8198 145.9236 127.8558 145.8916 125.9128 145.8606 124.8208 144.5826 124.8548 142.7106 124.8848 141.0476 126.0038 139.9576 127.6758 139.8556 129.6298 139.7356 130.6308 140.9426 130.9998 142.7866M131.0554 124.6611C130.5894 126.6751 129.6384 127.9911 127.6814 127.8261 125.7874 127.6661 124.6894 126.3471 124.8544 124.4761 124.9974 122.8581 126.1484 121.8051 127.8484 121.7921 129.8374 121.7781 130.6494 123.1261 131.0554 124.6611M127.9929 109.8496C126.1339 109.6136 124.8979 108.6206 124.8469 106.7146 124.8019 105.0216 125.9439 103.8766 127.5339 103.6906 129.4309 103.4676 130.7569 104.6246 130.9249 106.4826 131.0969 108.3896 129.8319 109.4436 127.9929 109.8496"/>
    <path fill="#F5F5F5" d="M67.9495 136.9497C66.0325 135.3017 63.9015 134.3197 61.2965 134.8207 61.8785 133.6177 61.3225 131.3727 63.5135 131.6127 65.5975 131.8407 68.0175 132.1767 69.5355 133.4007 70.7235 134.3587 68.9545 135.9137 67.9495 136.9497M194.4246 134.8135C191.8536 134.3945 189.8236 135.6995 187.7656 136.9095 186.8626 135.8305 185.1206 134.2155 186.2066 133.3695 187.7456 132.1705 190.1296 131.8135 192.2026 131.6105 194.3066 131.4045 193.9166 133.5605 194.4246 134.8135"/>
    <path fill="#E4810A" d="M56.8572,312.8154 C58.4882,317.1394 58.4252,321.4674 56.8942,325.7994 C55.5742,321.4754 55.4332,317.1474 56.8572,312.8154"/>
    <path fill="#E6820A" d="M202.2449,248.665 C199.7619,248.284 200.1769,251.91 197.8959,251.811 C197.3889,249.26 198.4269,246.591 196.6489,243.679 C200.1239,244.348 200.8759,246.839 202.2449,248.665"/>
    <path fill="#F5F5F5" d="M67.7507,50.8003 C65.5207,50.5953 66.1707,54.1113 63.8647,53.8083 C64.6007,50.6173 65.3357,47.4263 66.3547,43.0093 C67.3287,46.2723 67.8807,48.4523 67.7507,50.8003"/>
    <path fill="#E6820A" d="M58.55,255.9014 C56.204,255.0674 56.922,253.0364 56.876,251.3844 C56.821,249.4464 56.903,247.5184 55.833,245.7824 C56.193,245.1304 56.552,244.4784 56.912,243.8264 C57.533,243.8294 58.154,243.8314 58.774,243.8334 C58.699,247.8554 58.625,251.8794 58.55,255.9014"/>
    <path fill="#934C15" d="M141.7429,296.459 C141.7329,296.899 141.7239,297.34 141.7139,297.78 C139.1399,297.39 136.4559,298.299 133.9539,297.112 C133.9459,296.704 133.9369,296.297 133.9309,295.889 C136.5579,295.763 139.2039,295.378 141.7429,296.459"/>
    <path fill="#F5F5F5" d="M190.8708,50.8149 C189.8948,50.8099 188.9188,50.8049 187.9418,50.7999 C187.8428,48.5019 188.2398,46.2969 189.5138,43.0359 C190.0868,46.3209 190.4788,48.5679 190.8708,50.8149"/>
    <path fill="#32522B" d="M116.8044,285.6113 C114.0264,285.7873 111.2484,285.9643 108.4714,286.1393 L108.4254,285.1023 C111.2334,284.7343 114.0424,284.3663 116.8504,283.9983 C116.8344,284.5363 116.8194,285.0733 116.8044,285.6113"/>
    <path fill="#E5820A" d="M92.6472 282.8086C89.7542 280.4696 89.7222 278.1386 92.6652 275.8156 92.6592 278.1466 92.6532 280.4776 92.6472 282.8086M197.9402 299.8496C195.7572 296.8796 197.3002 294.7656 199.5552 292.8156 199.0172 295.1606 198.4782 297.5046 197.9402 299.8496"/>
    <path fill="#E6820A" d="M106.8284,268.877 C110.1804,267.213 113.5294,267.181 116.8734,268.899 C113.5244,269.316 110.1754,269.408 106.8284,268.877"/>
    <path fill="#E5820A" d="M190.6101,234.8506 C186.5641,234.2426 189.8451,231.2516 188.9141,229.6316 C190.7341,230.9626 190.3351,233.0166 190.6101,234.8506"/>
    <path fill="#F5F5F5" d="M67.9402,59.8389 C66.2532,57.8219 66.2612,55.8029 67.9322,53.7809 C68.3572,55.7999 68.3682,57.8189 67.9402,59.8389"/>
    <path fill="#777" d="M140.1638 100.5547C139.5268 100.6877 138.8918 100.8207 138.2548 100.9527 137.8888 100.3207 137.9808 99.6577 138.6258 99.4277 139.5108 99.1117 140.0708 99.6017 140.1638 100.5547M117.613 100.9043L115.552 100.5883C115.621 99.5893 116.287 99.1843 117.123 99.3983 117.792 99.5683 117.918 100.2443 117.613 100.9043"/>
    <path fill="#E6820A" d="M197.7351,253.7852 C199.3571,255.3992 199.4201,256.8072 197.1851,257.9132 C197.3661,256.5372 197.5501,255.1612 197.7351,253.7852"/>
    <path fill="#E4810A" d="M50.8259,237.7588 C50.8039,239.2218 49.9679,239.8088 48.5999,239.8258 C49.3419,239.1378 50.0839,238.4478 50.8259,237.7588"/>
    <path fill="#E6820A" d="M97.7419,269.3906 C98.5289,267.5936 99.5559,267.3346 100.8699,268.9006 C99.8269,269.0636 98.7849,269.2266 97.7419,269.3906"/>
    <path fill="#EBA04A" d="M110.0847,220.6289 C108.8207,220.5499 108.0907,219.9099 107.9787,218.6219 C109.3547,218.5829 110.0707,219.2369 110.0847,220.6289"/>
    <path fill="#934C15" d="M58.7742,243.833 C58.1532,243.831 57.5332,243.829 56.9122,243.826 C57.2232,242.995 57.4992,242.073 58.6272,242.218 C58.7432,242.232 58.7282,243.27 58.7742,243.833"/>
    <path fill="#ACACAC" d="M115.6379,151.5718 C116.5749,152.1438 117.2089,152.7668 116.0039,153.7058 C115.8819,152.9948 115.7599,152.2828 115.6379,151.5718"/>
    <path fill="#32522B" d="M58.1169 204.2559C58.2299 203.9979 58.3399 203.7469 58.4499 203.4949 58.5449 203.6209 58.6909 203.7349 58.7239 203.8759 58.7949 204.1809 58.8079 204.4989 58.8459 204.8119 58.6009 204.6289 58.3579 204.4449 58.1169 204.2559M197.2126 203.5967C197.3196 203.6047 197.4896 203.5737 197.5236 203.6277 197.5916 203.7377 197.6446 203.9157 197.6006 204.0247 197.4166 204.4727 197.2106 204.4577 197.0916 203.9887 197.0636 203.8747 197.1686 203.7277 197.2126 203.5967"/>
    <path fill="#32522B" d="M59.6311,206.9932 C58.8831,206.4402 58.7691,205.6602 58.8451,204.8112 C59.6951,205.1502 59.8471,205.9122 59.9811,206.6842 C59.9821,206.6832 59.6311,206.9932 59.6311,206.9932"/>
    <path fill="#E5820A" d="M191.4568,320.9228 C192.6108,321.1748 192.7908,322.0348 192.7688,323.0228 C192.3308,322.3218 191.8938,321.6228 191.4568,320.9228"/>
    <path fill="#EBA04A" d="M111.9241,221.7627 C110.9501,221.8757 110.1441,221.7237 109.9881,220.5397 C111.1071,220.1997 111.5331,220.9527 111.9241,221.7627"/>
    <path fill="#D59962" d="M182.6951,239.8555 C182.1931,239.5695 181.9231,239.1855 182.1561,238.5875 C182.3361,239.0095 182.5151,239.4325 182.6951,239.8555"/>
    <path fill="#E4810A" d="M54.9363,238.8232 C54.7953,238.6172 54.6543,238.4112 54.5123,238.2052 C54.7713,238.2472 55.0303,238.2902 55.2913,238.3362 C55.2883,238.5842 55.1693,238.7452 54.9363,238.8232"/>
    <path fill="#FEFEFE" d="M31.4036 260.0039C31.8226 259.9909 32.2426 259.9799 32.6626 259.9679 32.5336 260.3849 32.4036 260.8029 32.2746 261.2209 31.9846 260.8159 31.6946 260.4089 31.4036 260.0039M223.5115 261.1445L223.0315 259.9785C223.4405 259.9765 223.8505 259.9735 224.2605 259.9715 224.0105 260.3625 223.7615 260.7525 223.5115 261.1445"/>
    <path fill="#EBA04A" d="M102.9929,213.707 C102.3429,213.665 101.9969,213.319 101.9569,212.668 C103.0079,212.311 103.3569,212.653 102.9929,213.707"/>
    <path fill="#EBA04A" d="M103.9934,214.7109 C103.3404,214.6709 102.9934,214.3209 102.9454,213.6699 C104.0174,213.2899 104.2854,213.7189 103.9934,214.7109"/>
    <path fill="#EBA04A" d="M104.988,215.7148 C104.336,215.6708 103.988,215.3218 103.94,214.6708 C104.958,214.3488 105.267,214.7358 104.988,215.7148"/>
    <path fill="#EBA04A" d="M105.9866 216.7197C105.3396 216.6687 104.9856 216.3237 104.9376 215.6727 105.9616 215.3457 106.2016 215.8047 105.9866 216.7197M113.9973 223.7695C113.6243 223.4215 113.2513 223.0735 112.8783 222.7255 113.2513 223.0735 113.6243 223.4215 113.9973 223.7695"/>
    <path fill="#EBA04A" d="M106.9851,217.7217 C106.3401,217.6697 105.9891,217.3217 105.9301,216.6767 C106.8951,216.4077 107.1951,216.8077 106.9851,217.7217"/>
    <path fill="#EBA04A" d="M107.9861 218.7217C107.3411 218.6697 106.9891 218.3217 106.9291 217.6767 107.8611 217.4387 108.2051 217.7947 107.9861 218.7217M112.9294 222.7764C112.5754 222.4264 112.2224 222.0774 111.8684 221.7274 112.4774 221.8194 112.9064 222.0924 112.9294 222.7764"/>
    <path fill="#E5820A" d="M37.3191 281.3584C36.9231 281.4194 36.5271 281.4784 36.1311 281.5394 36.2851 281.2144 36.4391 280.8904 36.5921 280.5674L37.3191 281.3584zM219.1589 280.501L219.6009 281.526C219.1979 281.454 218.7939 281.382 218.3889 281.313 218.6449 281.043 218.9019 280.772 219.1589 280.501"/>
    <path fill="#070605" d="M138.8894 241.8242L137.8434 242.1612C133.1884 241.6912 133.4544 236.9672 131.2104 234.4122 130.6214 233.7402 130.8424 232.8092 132.0554 232.7292 133.0694 232.6622 134.1144 232.6322 134.3924 233.9492 134.7384 235.5842 135.0014 237.2482 136.7354 238.0912 137.3684 238.6922 138.0004 239.2942 138.6334 239.8962 138.7184 240.5392 138.8034 241.1812 138.8894 241.8242M120.7673 246.7246C120.8033 246.0906 120.8383 245.4556 120.8733 244.8226 123.6683 244.8766 126.0733 242.6726 128.8953 243.2756 130.7563 243.6716 133.3143 243.1186 133.8933 245.9926 129.4153 244.8476 125.0713 246.4006 120.6633 246.6526L120.7673 246.7246zM116.9329 239.2119C118.0439 237.6069 119.8009 236.4119 120.0389 234.2499 120.2209 232.5989 121.4719 232.5149 122.6239 232.7969 124.7779 233.3229 123.2699 234.6049 122.9309 235.4379 122.0239 237.6669 120.4399 239.2939 118.0859 240.0609 117.7019 239.7769 117.3169 239.4949 116.9329 239.2119M116.5037 241.4287C115.9557 241.8947 115.4067 242.3607 114.8577 242.8257 114.7087 242.6007 114.5517 242.3787 114.3877 242.1627 114.8297 241.6657 115.2707 241.1677 115.7117 240.6707 115.9767 240.9227 116.2397 241.1757 116.5037 241.4287"/>
    <path fill="#070605" d="M114.8577 242.8262C114.7227 243.6122 113.9617 244.1472 113.5327 243.7222 112.4717 242.6682 114.1387 242.7302 114.3887 242.1642 114.5517 242.3792 114.7087 242.6002 114.8577 242.8262M115.7122 240.6709C116.1192 240.1849 116.5262 239.6979 116.9332 239.2119 117.3172 239.4949 117.7022 239.7769 118.0862 240.0609 117.5592 240.5169 117.0312 240.9729 116.5042 241.4289 116.2402 241.1759 115.9762 240.9229 115.7122 240.6709M86.8806 246.8496C86.7846 247.2656 86.7896 247.7906 86.1026 247.5726 86.2346 247.1906 86.3656 246.8076 86.4956 246.4246 86.6226 246.5666 86.7506 246.7086 86.8806 246.8496"/>
    <path fill="#F7D6AD" d="M138.8894,241.8242 C138.8034,241.1812 138.7184,240.5392 138.6334,239.8962 C139.3864,239.9692 140.3984,239.8092 140.3324,240.9342 C140.3144,241.2582 139.3954,241.5292 138.8894,241.8242"/>
    <path fill="#070605" d="M120.6628 246.6523C120.7008 246.6783 120.7388 246.7063 120.7718 246.7283 120.7668 246.7243 120.6628 246.6523 120.6628 246.6523M194.9861 307.7793L194.8451 308.8133C194.2811 308.6923 193.7151 308.5713 193.8021 307.7873 194.1971 307.7843 194.5911 307.7813 194.9861 307.7793"/>
  </g>
</svg>
